<?xml version="1.0" encoding="UTF-8" standalone="no"?>
<svg
   width="32px"
   height="32px"
   viewBox="0 0 32 32"
   version="1.1"
   id="svg5"
   sodipodi:docname="facebook-round-line-color (1).svg"
   inkscape:version="1.1 (c68e22c387, 2021-05-23)"
   xmlns:inkscape="http://www.inkscape.org/namespaces/inkscape"
   xmlns:sodipodi="http://sodipodi.sourceforge.net/DTD/sodipodi-0.dtd"
   xmlns="http://www.w3.org/2000/svg"
   xmlns:svg="http://www.w3.org/2000/svg">
  <defs
     id="defs9" />
  <sodipodi:namedview
     id="namedview7"
     pagecolor="#ffffff"
     bordercolor="#666666"
     borderopacity="1.0"
     inkscape:pageshadow="2"
     inkscape:pageopacity="0.0"
     inkscape:pagecheckerboard="0"
     showgrid="false"
     inkscape:zoom="23.53125"
     inkscape:cx="16"
     inkscape:cy="12.600266"
     inkscape:window-width="1920"
     inkscape:window-height="991"
     inkscape:window-x="-9"
     inkscape:window-y="-9"
     inkscape:window-maximized="1"
     inkscape:current-layer="surface1" />
  <g
     id="surface1">
    <path
       style="stroke:none;fill-rule:nonzero;fill:#f9f9f9;fill-opacity:1"
       d="M 16 0 C 20.417969 0 24.417969 1.789062 27.3125 4.6875 C 30.210938 7.582031 32 11.582031 32 16 C 32 20.417969 30.210938 24.417969 27.3125 27.3125 C 24.417969 30.210938 20.417969 32 16 32 C 11.582031 32 7.582031 30.210938 4.6875 27.3125 C 1.789062 24.417969 0 20.417969 0 16 C 0 11.582031 1.789062 7.582031 4.6875 4.6875 C 7.582031 1.789062 11.582031 0 16 0 Z M 17.585938 10.71875 L 20.222656 10.71875 L 20.222656 7.550781 L 17.585938 7.550781 C 15.546875 7.550781 13.886719 9.210938 13.886719 11.246094 L 13.886719 12.832031 L 11.777344 12.832031 L 11.777344 16 L 13.886719 16 L 13.886719 24.449219 L 17.054688 24.449219 L 17.054688 16 L 19.695312 16 L 20.222656 12.832031 L 17.054688 12.832031 L 17.054688 11.246094 C 17.054688 10.960938 17.296875 10.71875 17.585938 10.71875 Z M 26.238281 5.761719 C 23.617188 3.144531 19.996094 1.523438 16 1.523438 C 12.003906 1.523438 8.382812 3.144531 5.765625 5.761719 C 3.144531 8.382812 1.523438 12.003906 1.523438 16 C 1.523438 19.996094 3.144531 23.617188 5.765625 26.234375 C 8.382812 28.855469 12.003906 30.476562 16 30.476562 C 19.996094 30.476562 23.617188 28.855469 26.238281 26.234375 C 28.855469 23.617188 30.476562 19.996094 30.476562 16 C 30.476562 12.003906 28.855469 8.382812 26.238281 5.761719 Z M 26.238281 5.761719 "
       id="path2" />
  </g>
</svg>
