<?xml version="1.0" encoding="UTF-8" standalone="no"?>
<svg
   width="32px"
   height="32px"
   viewBox="0 0 32 32"
   version="1.1"
   id="svg18"
   sodipodi:docname="instagram-round-line-color.svg"
   inkscape:version="1.1 (c68e22c387, 2021-05-23)"
   xmlns:inkscape="http://www.inkscape.org/namespaces/inkscape"
   xmlns:sodipodi="http://sodipodi.sourceforge.net/DTD/sodipodi-0.dtd"
   xmlns="http://www.w3.org/2000/svg"
   xmlns:svg="http://www.w3.org/2000/svg">
  <sodipodi:namedview
     id="namedview20"
     pagecolor="#ffffff"
     bordercolor="#666666"
     borderopacity="1.0"
     inkscape:pageshadow="2"
     inkscape:pageopacity="0.0"
     inkscape:pagecheckerboard="0"
     showgrid="false"
     inkscape:zoom="23.53125"
     inkscape:cx="16"
     inkscape:cy="16"
     inkscape:window-width="1920"
     inkscape:window-height="991"
     inkscape:window-x="-9"
     inkscape:window-y="-9"
     inkscape:window-maximized="1"
     inkscape:current-layer="svg18" />
  <defs
     id="defs13">
    <linearGradient
       id="linear0"
       gradientUnits="userSpaceOnUse"
       x1="126963"
       y1="323675"
       x2="206370"
       y2="9655.51"
       gradientTransform="matrix(0.0000960001,0,0,0.0000960001,0,0)">
      <stop
         offset="0"
         style="stop-color:rgb(96.078431%,52.156863%,16.078431%);stop-opacity:1;"
         id="stop2" />
      <stop
         offset="0.129"
         style="stop-color:rgb(99.607843%,85.490196%,46.666667%);stop-opacity:1;"
         id="stop4" />
      <stop
         offset="0.431"
         style="stop-color:rgb(86.666667%,16.470588%,48.235294%);stop-opacity:1;"
         id="stop6" />
      <stop
         offset="0.741"
         style="stop-color:rgb(50.588235%,20.392157%,68.627451%);stop-opacity:1;"
         id="stop8" />
      <stop
         offset="1"
         style="stop-color:rgb(31.764706%,35.686275%,83.137255%);stop-opacity:1;"
         id="stop10" />
    </linearGradient>
  </defs>
  <g
     id="surface1"
     style="fill:#f9f9f9">
    <path
       style="stroke:none;fill-rule:evenodd;fill:#f9f9f9"
       d="M 12.460938 7.703125 L 19.539062 7.703125 C 22.195312 7.703125 24.367188 9.851562 24.367188 12.472656 L 24.367188 19.527344 C 24.367188 22.152344 22.195312 24.296875 19.539062 24.296875 L 12.460938 24.296875 C 9.804688 24.296875 7.632812 22.152344 7.632812 19.527344 L 7.632812 12.472656 C 7.632812 9.851562 9.804688 7.703125 12.460938 7.703125 Z M 16 0 C 20.417969 0 24.417969 1.789062 27.3125 4.6875 C 30.210938 7.582031 32 11.582031 32 16 C 32 20.417969 30.210938 24.417969 27.3125 27.3125 C 24.417969 30.207031 20.417969 32 16 32 C 11.582031 32 7.582031 30.207031 4.6875 27.3125 C 1.792969 24.417969 0 20.417969 0 16 C 0 11.582031 1.789062 7.582031 4.6875 4.6875 C 7.582031 1.792969 11.582031 0 16 0 Z M 26.074219 5.925781 C 23.496094 3.351562 19.933594 1.753906 16 1.753906 C 12.066406 1.753906 8.503906 3.351562 5.925781 5.925781 C 3.351562 8.503906 1.753906 12.066406 1.753906 16 C 1.753906 19.933594 3.351562 23.496094 5.925781 26.074219 C 8.503906 28.648438 12.066406 30.246094 16 30.246094 C 19.933594 30.246094 23.496094 28.648438 26.074219 26.074219 C 28.648438 23.496094 30.246094 19.933594 30.246094 16 C 30.246094 12.066406 28.648438 8.503906 26.074219 5.925781 Z M 15.953125 11.519531 C 18.535156 11.519531 20.632812 13.617188 20.632812 16.199219 C 20.632812 18.78125 18.535156 20.875 15.953125 20.875 C 13.371094 20.875 11.277344 18.78125 11.277344 16.199219 C 11.277344 13.617188 13.371094 11.519531 15.953125 11.519531 Z M 15.953125 13.101562 C 17.664062 13.101562 19.050781 14.488281 19.050781 16.199219 C 19.050781 17.90625 17.664062 19.296875 15.953125 19.296875 C 14.246094 19.296875 12.855469 17.90625 12.855469 16.199219 C 12.855469 14.488281 14.246094 13.101562 15.953125 13.101562 Z M 20.480469 10.871094 C 20.898438 10.871094 21.238281 11.210938 21.238281 11.632812 C 21.238281 12.050781 20.898438 12.390625 20.480469 12.390625 C 20.0625 12.390625 19.722656 12.050781 19.722656 11.632812 C 19.722656 11.210938 20.0625 10.871094 20.480469 10.871094 Z M 13.039062 9.058594 L 18.960938 9.058594 C 21.183594 9.058594 23 10.867188 23 13.078125 L 23 19.027344 C 23 21.238281 21.183594 23.046875 18.960938 23.046875 L 13.039062 23.046875 C 10.816406 23.046875 9 21.238281 9 19.027344 L 9 13.078125 C 9 10.867188 10.816406 9.058594 13.039062 9.058594 Z M 13.039062 9.058594 "
       id="path15" />
  </g>
</svg>
