<?xml version="1.0" encoding="UTF-8" standalone="no"?>
<svg
   width="32px"
   height="32px"
   viewBox="0 0 32 32"
   version="1.1"
   id="svg5"
   sodipodi:docname="twitter-round-line-color.svg"
   inkscape:version="1.1 (c68e22c387, 2021-05-23)"
   xmlns:inkscape="http://www.inkscape.org/namespaces/inkscape"
   xmlns:sodipodi="http://sodipodi.sourceforge.net/DTD/sodipodi-0.dtd"
   xmlns="http://www.w3.org/2000/svg"
   xmlns:svg="http://www.w3.org/2000/svg">
  <defs
     id="defs9" />
  <sodipodi:namedview
     id="namedview7"
     pagecolor="#ffffff"
     bordercolor="#666666"
     borderopacity="1.0"
     inkscape:pageshadow="2"
     inkscape:pageopacity="0.0"
     inkscape:pagecheckerboard="0"
     showgrid="false"
     inkscape:zoom="23.53125"
     inkscape:cx="16"
     inkscape:cy="16"
     inkscape:window-width="1920"
     inkscape:window-height="991"
     inkscape:window-x="-9"
     inkscape:window-y="-9"
     inkscape:window-maximized="1"
     inkscape:current-layer="svg5" />
  <g
     id="surface1"
     style="fill:#f9f9f9">
    <path
       style="stroke:none;fill-rule:nonzero;fill:#f9f9f9;fill-opacity:1"
       d="M 16 0 C 20.417969 0 24.417969 1.789062 27.3125 4.6875 C 30.210938 7.582031 32 11.582031 32 16 C 32 20.417969 30.210938 24.417969 27.3125 27.3125 C 24.417969 30.210938 20.417969 32 16 32 C 11.582031 32 7.582031 30.210938 4.6875 27.3125 C 1.789062 24.417969 0 20.417969 0 16 C 0 11.582031 1.789062 7.582031 4.6875 4.6875 C 7.582031 1.789062 11.582031 0 16 0 Z M 23.414062 11.402344 C 22.867188 11.644531 22.28125 11.808594 21.667969 11.878906 C 22.296875 11.503906 22.777344 10.90625 23.007812 10.199219 C 22.417969 10.542969 21.765625 10.800781 21.074219 10.9375 C 20.519531 10.34375 19.730469 9.976562 18.855469 9.976562 C 17.175781 9.976562 15.816406 11.339844 15.816406 13.015625 C 15.816406 13.253906 15.839844 13.484375 15.890625 13.710938 C 13.363281 13.582031 11.125 12.371094 9.625 10.53125 C 9.355469 10.996094 9.210938 11.523438 9.210938 12.058594 C 9.210938 13.113281 9.746094 14.046875 10.5625 14.589844 C 10.066406 14.574219 9.597656 14.4375 9.1875 14.210938 L 9.1875 14.25 C 9.1875 15.722656 10.234375 16.953125 11.625 17.230469 C 11.371094 17.300781 11.101562 17.339844 10.824219 17.339844 C 10.628906 17.339844 10.4375 17.316406 10.25 17.285156 C 10.640625 18.492188 11.761719 19.371094 13.089844 19.398438 C 12.046875 20.214844 10.738281 20.699219 9.3125 20.699219 C 9.066406 20.699219 8.824219 20.683594 8.585938 20.65625 C 9.933594 21.519531 11.535156 22.023438 13.25 22.023438 C 18.84375 22.023438 21.902344 17.386719 21.902344 13.367188 C 21.902344 13.234375 21.902344 13.105469 21.894531 12.976562 C 22.488281 12.550781 23.003906 12.011719 23.414062 11.402344 Z M 26.238281 5.761719 C 23.617188 3.144531 19.996094 1.523438 16 1.523438 C 12.003906 1.523438 8.382812 3.144531 5.765625 5.761719 C 3.144531 8.382812 1.523438 12.003906 1.523438 16 C 1.523438 19.996094 3.144531 23.617188 5.765625 26.234375 C 8.382812 28.855469 12.003906 30.476562 16 30.476562 C 19.996094 30.476562 23.617188 28.855469 26.238281 26.234375 C 28.855469 23.617188 30.476562 19.996094 30.476562 16 C 30.476562 12.003906 28.855469 8.382812 26.238281 5.761719 Z M 26.238281 5.761719 "
       id="path2" />
  </g>
</svg>
